<?xml version="1.0" standalone="no"?>
<!DOCTYPE svg PUBLIC "-//W3C//DTD SVG 20010904//EN"
 "http://www.w3.org/TR/2001/REC-SVG-20010904/DTD/svg10.dtd">
<svg version="1.0" xmlns="http://www.w3.org/2000/svg"
 width="830.000000pt" height="830.000000pt" viewBox="0 0 830.000000 830.000000"
 preserveAspectRatio="xMidYMid meet">
<metadata>
Created by potrace 1.14, written by Peter Selinger 2001-2017
</metadata>
<g transform="translate(0.000000,830.000000) scale(0.100000,-0.100000)"
fill="#000000" stroke="none">
<path d="M3877 8009 c-260 -17 -594 -73 -817 -139 -81 -23 -77 -23 95 -5 166
18 557 20 718 4 238 -23 598 -96 839 -170 1253 -384 2183 -1462 2377 -2756 76
-500 44 -984 -96 -1468 -46 -160 -124 -368 -133 -358 -4 4 -22 53 -39 108
-157 509 -171 931 -45 1410 141 540 144 550 144 622 0 136 -47 198 -150 197
-80 -1 -141 -33 -236 -128 -97 -96 -174 -212 -255 -380 -97 -203 -152 -386
-184 -611 -17 -116 -19 -418 -5 -550 16 -145 60 -371 95 -495 18 -63 32 -116
31 -117 -1 -1 -33 7 -71 18 -196 54 -498 111 -680 129 -66 6 -139 13 -163 16
l-43 5 38 43 c111 127 222 394 258 621 33 212 28 370 -29 825 -8 63 -11 118
-8 122 4 4 74 30 156 58 215 73 325 131 462 242 128 104 338 385 399 537 29
70 65 241 65 306 0 44 -1 47 -22 41 -13 -4 -120 -13 -238 -21 -719 -49 -989
-84 -1199 -159 -75 -27 -90 -22 -203 63 -330 246 -655 371 -1039 399 l-116 8
-74 63 c-298 248 -757 454 -1127 505 -32 5 -44 3 -48 -8 -3 -9 17 -62 44 -118
116 -237 169 -471 197 -864 l7 -91 -76 -69 c-163 -147 -278 -345 -335 -578
-22 -89 -26 -118 -61 -418 -25 -212 -44 -283 -115 -438 -69 -151 -84 -204 -92
-316 l-6 -91 -116 77 c-328 220 -640 359 -984 439 -139 33 -134 24 18 -28 398
-136 766 -318 1016 -503 66 -49 78 -62 87 -99 6 -24 10 -45 8 -46 -2 -2 -59
26 -127 61 -221 115 -417 190 -659 251 -139 35 -369 79 -376 72 -2 -2 80 -27
184 -57 412 -116 678 -214 890 -327 100 -54 104 -57 128 -111 13 -30 22 -57
20 -60 -3 -2 -51 14 -108 36 -246 95 -471 148 -728 171 -106 10 -388 14 -365
6 6 -2 86 -11 178 -20 380 -37 672 -103 925 -211 126 -54 136 -62 193 -150
146 -224 417 -490 619 -610 40 -24 78 -45 83 -47 4 -1 -23 -99 -62 -217 -126
-387 -179 -598 -226 -897 -22 -143 -31 -230 -51 -476 -7 -90 10 -86 -144 -30
-511 190 -1078 574 -1441 978 -308 342 -515 672 -684 1090 -29 72 -55 139 -59
149 -17 49 -13 0 9 -104 159 -751 539 -1435 1095 -1974 539 -521 1195 -866
1928 -1015 683 -139 1389 -91 2053 138 420 145 850 389 1204 682 144 119 414
394 531 539 398 498 659 1050 783 1659 159 775 76 1576 -238 2307 -531 1239
-1702 2128 -3033 2304 -282 37 -511 46 -771 29z m200 -1980 c124 -46 204 -171
189 -297 -25 -210 -261 -386 -472 -352 -122 20 -215 87 -262 188 -48 105 -16
253 77 352 24 25 39 36 35 25 -58 -157 80 -327 234 -287 56 15 89 37 120 82
28 42 29 123 3 233 -22 91 -21 91 76 56z m-1148 -783 c32 -17 61 -57 61 -84 0
-11 -19 -34 -43 -53 -151 -119 -228 -316 -230 -589 0 -140 17 -204 69 -249 44
-39 68 -45 160 -39 63 4 74 3 74 -11 0 -9 -15 -26 -33 -38 -125 -85 -313 -64
-409 46 -71 80 -112 218 -111 371 2 141 23 235 79 350 40 80 61 109 138 185
123 121 177 146 245 111z m154 -288 c35 -47 50 -102 49 -175 -2 -122 -34 -242
-92 -351 -46 -86 -73 -112 -120 -112 -74 0 -95 52 -87 219 9 189 65 352 144
421 45 39 76 39 106 -2z m1409 -100 c55 -26 156 -105 156 -123 0 -5 -25 -20
-56 -33 -197 -83 -333 -237 -378 -428 -22 -96 -22 -272 0 -348 37 -125 122
-196 238 -199 179 -4 297 116 433 441 25 57 49 54 53 -8 4 -56 -38 -275 -68
-352 -30 -81 -78 -148 -134 -185 -59 -40 -103 -53 -186 -53 -78 0 -150 19
-375 100 -93 33 -204 72 -245 87 -100 36 -177 109 -205 198 -25 76 -26 258 -2
357 56 233 217 433 429 533 122 58 233 62 340 13z m273 -318 c14 -13 30 -42
36 -64 26 -95 -23 -307 -96 -422 -74 -116 -198 -202 -273 -191 -123 20 -150
257 -52 465 35 75 139 184 210 220 59 30 138 27 175 -8z m-1516 -781 c95 -38
121 -55 121 -78 0 -20 -28 -35 -100 -51 -88 -19 -94 -17 -127 53 -16 34 -33
75 -37 91 -7 28 -7 28 30 21 21 -3 71 -20 113 -36z m2426 -507 c66 -12 208
-35 315 -52 204 -32 240 -41 240 -62 0 -7 22 -70 49 -140 26 -71 46 -128 43
-128 -2 0 -68 20 -146 46 -342 110 -714 186 -1031 210 l-89 7 74 68 c41 37 84
70 95 73 46 11 336 -3 450 -22z m-447 -202 c331 -23 505 -52 986 -166 l119
-28 24 -56 c13 -30 54 -117 90 -192 l66 -137 -58 -78 c-175 -234 -385 -451
-617 -638 -105 -84 -299 -216 -309 -210 -15 10 -73 164 -125 332 -90 290 -170
471 -293 659 -59 92 -241 291 -306 335 -67 46 -46 45 171 -2 72 -15 169 -40
215 -55 144 -45 547 -210 888 -363 62 -28 116 -51 120 -51 17 1 -236 142 -399
223 -292 146 -581 254 -847 317 l-142 34 39 17 c21 10 56 29 77 43 44 30 72
32 301 16z"/>
</g>
</svg>
