<?xml version="1.0" standalone="no"?>
<!DOCTYPE svg PUBLIC "-//W3C//DTD SVG 20010904//EN"
 "http://www.w3.org/TR/2001/REC-SVG-20010904/DTD/svg10.dtd">
<svg version="1.0" xmlns="http://www.w3.org/2000/svg"
 width="830.000000pt" height="830.000000pt" viewBox="0 0 830.000000 830.000000"
 preserveAspectRatio="xMidYMid meet">
<metadata>
Created by potrace 1.14, written by Peter Selinger 2001-2017
</metadata>
<g transform="translate(0.000000,830.000000) scale(0.100000,-0.100000)"
fill="#000000" stroke="none">
<path d="M3925 8014 c-128 -8 -375 -37 -480 -55 -127 -23 -448 -100 -441 -106
2 -3 48 1 103 7 243 30 647 28 878 -4 372 -52 762 -153 1034 -268 924 -390
1621 -1140 1935 -2080 246 -739 232 -1534 -41 -2276 -25 -68 -49 -120 -53
-115 -10 11 -63 185 -94 308 -55 222 -70 344 -70 580 0 306 15 396 149 890 80
294 92 398 57 478 -27 60 -61 82 -132 82 -155 0 -338 -190 -491 -509 -140
-293 -200 -560 -200 -892 1 -258 37 -524 106 -764 18 -63 32 -116 31 -117 -1
-1 -32 7 -71 18 -194 54 -485 109 -675 129 -58 6 -129 13 -158 16 l-52 5 37
43 c111 126 220 390 259 621 33 205 28 362 -30 825 -8 63 -11 118 -8 122 4 4
66 27 137 51 246 84 360 144 495 259 123 106 329 385 383 521 31 77 67 245 67
312 0 46 -1 47 -27 41 -28 -6 -86 -10 -578 -47 -422 -31 -590 -56 -811 -120
-56 -16 -111 -29 -122 -29 -11 0 -67 35 -124 79 -248 184 -498 304 -759 361
-78 17 -137 24 -351 45 -40 3 -59 13 -121 65 -292 244 -745 448 -1124 505 -34
5 -44 3 -49 -9 -3 -8 16 -61 44 -118 116 -240 191 -577 193 -863 l0 -99 -89
-86 c-151 -145 -244 -308 -308 -539 -13 -48 -35 -183 -49 -310 -39 -345 -50
-388 -149 -607 -51 -111 -76 -208 -76 -296 0 -32 -2 -58 -5 -58 -3 0 -63 38
-133 84 -311 204 -608 338 -924 415 -179 44 -186 37 -23 -18 397 -135 734
-302 1011 -500 68 -49 80 -62 91 -100 7 -25 11 -46 9 -48 -2 -2 -59 26 -127
61 -217 114 -413 188 -655 251 -129 33 -373 80 -380 72 -2 -2 87 -30 198 -61
258 -74 456 -138 583 -188 106 -42 372 -172 392 -191 17 -17 54 -117 44 -117
-5 0 -31 9 -58 21 -289 126 -704 206 -1033 197 l-125 -3 140 -13 c387 -37 682
-98 920 -193 182 -72 194 -81 273 -199 143 -213 423 -486 602 -587 25 -14 55
-32 67 -39 l21 -13 -59 -183 c-181 -559 -245 -863 -279 -1332 -6 -77 -12 -141
-14 -143 -6 -7 -224 77 -348 133 -260 117 -573 311 -813 501 -524 417 -917
966 -1155 1617 -20 56 -19 19 4 -89 162 -760 532 -1431 1092 -1975 1053 -1023
2579 -1363 3974 -885 416 143 809 361 1170 649 150 120 433 400 552 546 490
602 772 1270 864 2045 24 206 25 633 1 835 -57 481 -181 902 -381 1303 -597
1193 -1743 1989 -3066 2132 -143 15 -490 26 -605 19z m152 -1985 c123 -46 204
-172 189 -297 -25 -210 -261 -386 -472 -352 -113 19 -209 83 -256 173 -18 34
-23 58 -23 127 0 100 25 166 93 240 l42 45 -11 -33 c-14 -43 -7 -117 15 -164
68 -142 256 -157 344 -28 22 32 24 42 19 120 -3 47 -12 109 -20 138 -13 49
-13 52 4 52 10 0 44 -10 76 -21z m-1147 -784 c29 -15 60 -60 60 -88 0 -7 -20
-29 -46 -47 -104 -79 -176 -214 -215 -405 -16 -78 -16 -288 -1 -342 15 -50 53
-98 95 -120 28 -14 111 -19 172 -11 36 5 27 -26 -15 -54 -143 -92 -352 -46
-434 96 -63 108 -91 256 -76 402 21 200 78 324 215 459 122 122 176 146 245
110z m153 -287 c40 -54 50 -101 44 -207 -3 -53 -13 -123 -21 -156 -23 -83 -77
-194 -116 -239 -29 -33 -38 -37 -73 -34 -30 2 -45 10 -61 31 -19 26 -21 41
-20 165 1 118 5 150 28 227 33 108 69 176 113 216 45 38 76 38 106 -3z m1418
-106 c35 -18 86 -52 112 -77 41 -38 46 -46 30 -51 -10 -4 -56 -25 -103 -47
-67 -33 -102 -59 -166 -122 -128 -126 -175 -250 -177 -460 -1 -220 64 -331
215 -364 85 -19 196 15 266 82 64 61 135 183 207 355 24 57 49 54 53 -6 4 -51
-30 -241 -59 -329 -29 -89 -89 -177 -146 -213 -127 -81 -222 -71 -583 59 -80
28 -177 63 -217 77 -86 31 -154 86 -188 154 -69 135 -51 392 40 574 85 171
272 338 439 393 25 8 75 12 127 10 74 -3 96 -8 150 -35z m264 -312 c71 -67 52
-272 -41 -451 -59 -112 -197 -229 -271 -229 -137 0 -176 249 -73 468 35 75
139 184 210 220 59 30 138 27 175 -8z m-1516 -781 c95 -38 121 -55 121 -78 0
-20 -28 -35 -100 -51 -89 -19 -94 -17 -128 58 -16 37 -33 78 -37 91 -7 23 -6
23 31 17 20 -4 71 -21 113 -37z m2391 -502 c47 -9 189 -32 315 -52 239 -37
275 -46 275 -67 0 -7 22 -70 49 -140 26 -71 46 -128 43 -128 -2 0 -67 20 -143
45 -354 113 -707 186 -1033 211 l-89 7 74 68 c41 37 83 70 94 73 40 9 332 -3
415 -17z m-412 -207 c81 -6 221 -19 312 -30 152 -19 234 -35 649 -131 l144
-33 24 -55 c13 -31 54 -118 90 -193 l66 -137 -43 -58 c-234 -313 -529 -599
-829 -802 -57 -39 -107 -68 -112 -66 -15 10 -73 164 -125 332 -128 412 -258
656 -460 863 -58 60 -121 119 -140 132 -66 45 -42 45 176 -4 74 -17 171 -41
215 -55 138 -44 550 -212 884 -362 62 -28 116 -51 120 -51 17 1 -236 143 -399
224 -296 147 -577 251 -853 317 -121 29 -135 35 -110 43 15 5 50 24 78 43 58
38 74 39 313 23z"/>
</g>
</svg>
